<?xml version="1.0" encoding="utf-8"?>
<!-- Generator: Adobe Illustrator 19.2.0, SVG Export Plug-In . SVG Version: 6.00 Build 0)  -->
<svg version="1.1" id="Capa_1" xmlns="http://www.w3.org/2000/svg" xmlns:xlink="http://www.w3.org/1999/xlink" x="0px" y="0px"
	 viewBox="0 0 512 512" style="enable-background:new 0 0 512 512;" xml:space="preserve">
<style type="text/css">
	.st0{fill:#393E46;}
</style>
<g>
	<g>
		<g>
			<path class="st0" d="M286.3,297c-5.6-3.4-11.8-6.4-18.2-9c-1.1-5.4-4.4-20.6-7.9-34.8c-0.5-2-2.6-3.3-4.6-2.7h0
				c-2,0.5-3.2,2.6-2.7,4.6c2.8,11.1,5.4,22.7,6.9,29.8c-17.4-5.8-37.1-8.9-57.6-8.9c-20.4,0-40.2,3.1-57.6,9
				c6.8-32.1,13.1-53.8,15.6-56.9c9.4-5.3,25.1-8.5,42-8.5c16.9,0,32.5,3.2,42,8.5c0.3,0.4,1.4,2.2,3.4,8.3c0.6,2,2.7,3,4.7,2.4l0,0
				c2-0.6,3.2-2.8,2.5-4.8c-3.2-9.7-5-11.4-6.6-12.3c-10.5-6-27.7-9.7-46-9.7s-35.5,3.6-46,9.7c-2,1.2-3.9,3.9-7.1,13.8
				c-1.8,5.7-3.9,13.3-6.2,22.7c-3.1,12.6-5.7,25.1-6.7,29.8c-8.3,3.4-16,7.4-22.9,12c-1.8,1.2-2.2,3.6-1,5.4c1.2,1.6,3.5,2,5.2,0.9
				c21.5-14.5,52.1-22.7,84.6-22.7c30.4,0,58.9,7.1,80.3,20c20.8,12.5,32.2,29,32.2,46.3c0,16.1-10.3,31.8-28.5,43.9
				c0.7-4.3,1-8.8,1-13.3c0-24-10.2-47-28-63.1c-0.4-0.4-0.9-0.6-1.4-0.8c-17-5.5-36.3-8.3-55.7-8.3c-19.4,0-38.6,2.9-55.7,8.3
				c-0.5,0.2-1,0.4-1.4,0.8c-17.8,16.1-28,39.1-28,63.1c0,4.5,0.4,8.9,1,13.3c-18.2-12.1-28.5-27.8-28.5-43.9
				c0-10.8,4.6-21.5,13.2-31.1c1.3-1.5,1.3-3.8-0.1-5.2l0,0c-1.5-1.5-4-1.5-5.5,0.1c-10,11-15.2,23.4-15.2,36.1
				c0,10.8,3.7,21.2,10.9,31c6.6,8.8,15.8,16.6,27.4,23.2c10.2,35.5,43,61.6,81.8,61.6s71.5-26,81.8-61.6
				c11.6-6.6,20.8-14.4,27.4-23.2c7.3-9.7,10.9-20.1,10.9-31C322.2,329.7,309.5,311,286.3,297z M149.5,323.5
				c16.1-5.1,34.3-7.7,52.6-7.7c18.3,0,36.5,2.7,52.6,7.7c2.8,2.6,5.4,5.3,7.7,8.2c-8.8,2.3-18.1,4.1-27.6,5.4l-2-9.1
				c-0.4-2-2.5-3.3-4.5-2.9c-2,0.4-3.3,2.5-2.9,4.5l1.8,8.4c-8.3,0.8-16.7,1.3-25.2,1.3c-4.9,0-9.8-0.2-14.6-0.4l0.5-2.6
				c0.4-2.1-1-4-3-4.4c-2.1-0.4-4,1-4.4,3l-0.7,3.4c-2.2-0.2-4.3-0.4-6.4-0.7l2.6-10.9c0.5-2-0.8-4.1-2.8-4.6
				c-2-0.5-4.1,0.8-4.6,2.8l-2.8,11.7c-8.3-1.2-16.4-2.8-24.1-4.9C144.2,328.8,146.8,326,149.5,323.5z M202.1,458
				c-42.8,0-77.5-34.8-77.5-77.5c0-15.1,4.4-29.7,12.5-42.2c20.3,5.6,42.2,8.5,65,8.5c22.9,0,44.7-2.9,65-8.5
				c8.1,12.5,12.5,27.1,12.5,42.2C279.7,423.2,244.9,458,202.1,458z"/>
		</g>
	</g>
	<g>
		<g>
			<path class="st0" d="M168.6,368.1c-10.4,0-18.9,8.5-18.9,18.9c0,2.1,1.7,3.8,3.8,3.8c2.1,0,3.8-1.7,3.8-3.8
				c0-6.3,5.1-11.4,11.4-11.4c6.3,0,11.4,5.1,11.4,11.4c0,2.1,1.7,3.8,3.8,3.8s3.8-1.7,3.8-3.8C187.5,376.6,179,368.1,168.6,368.1z"
				/>
		</g>
	</g>
	<g>
		<g>
			<path class="st0" d="M235.7,368.1c-10.4,0-18.9,8.5-18.9,18.9c0,2.1,1.7,3.8,3.8,3.8s3.8-1.7,3.8-3.8c0-6.3,5.1-11.4,11.4-11.4
				c6.3,0,11.4,5.1,11.4,11.4c0,2.1,1.7,3.8,3.8,3.8c2.1,0,3.8-1.7,3.8-3.8C254.6,376.6,246.1,368.1,235.7,368.1z"/>
		</g>
	</g>
	<g>
		<g>
			<path class="st0" d="M214.4,416.2c-1.5-1.5-3.9-1.5-5.4,0c-1.9,1.9-4.3,2.9-7,2.9c-2.6,0-5.1-1-7-2.9c-1.5-1.5-3.9-1.5-5.4,0
				c-1.5,1.5-1.5,3.9,0,5.4c3.3,3.3,7.7,5.1,12.3,5.1s9-1.8,12.3-5.1C215.9,420.1,215.9,417.7,214.4,416.2z"/>
		</g>
	</g>
	<g>
		<g>
			<g>
				<path class="st0" d="M371.4,46.5H269.1c-32.3,0-58.6,26.3-58.6,58.6V149c0,32.3,26.3,58.6,58.6,58.6h0.4l-7,29.7
					c-0.5,1.9,0.4,3.9,2,4.9c0.7,0.4,1.5,0.7,2.3,0.7c1.1,0,2.1-0.4,2.9-1.1l39.9-34.2h61.8c32.3,0,58.6-26.3,58.6-58.6V105
					C430,72.7,403.7,46.5,371.4,46.5z M421,149c0,27.3-22.2,49.6-49.6,49.6h-63.5c-1.1,0-2.1,0.4-2.9,1.1l-30.6,26.2l5.2-21.8
					c0.3-1.3,0-2.8-0.8-3.8c-0.9-1.1-2.2-1.7-3.5-1.7h-6.1c-27.3,0-49.6-22.2-49.6-49.6V105c0-27.3,22.2-49.6,49.6-49.6h102.3
					c27.3,0,49.6,22.2,49.6,49.6L421,149L421,149z"/>
			</g>
		</g>
		<g>
			<g>
				<path class="st0" d="M368.7,83.1c-2.5,0-4.5,2-4.5,4.5v20.2l-11.8-22.3c-1-1.8-3.1-2.8-5.1-2.3c-2,0.5-3.4,2.3-3.4,4.4v38.3
					c0,2.5,2,4.5,4.5,4.5c2.5,0,4.5-2,4.5-4.5v-20.2l11.8,22.3c0.8,1.5,2.3,2.4,4,2.4c0.4,0,0.7,0,1.1-0.1c2-0.5,3.4-2.3,3.4-4.4
					V87.7C373.2,85.2,371.1,83.1,368.7,83.1z"/>
			</g>
		</g>
		<g>
			<g>
				<path class="st0" d="M325.5,137.6h-11.9c-6.6,0-12,5.4-12,12v23.2c0,6.6,5.4,12,12,12h11.9c6.6,0,12-5.4,12-12v-23.2
					C337.5,143,332.1,137.6,325.5,137.6z M328.5,172.9L328.5,172.9c0,1.7-1.4,3-3,3h-11.9c-1.7,0-3-1.4-3-3v-23.2c0-1.7,1.4-3,3-3
					h11.9c1.7,0,3,1.4,3,3V172.9z"/>
			</g>
		</g>
		<g>
			<g>
				<path class="st0" d="M378,137.6c-2.5,0-4.5,2-4.5,4.5v30.8c0,1.7-1.4,3-3,3h-11.9c-1.7,0-3-1.4-3-3v-30.8c0-2.5-2-4.5-4.5-4.5
					c-2.5,0-4.5,2-4.5,4.5v30.8c0,6.6,5.4,12,12,12h11.9c6.6,0,12-5.4,12-12v-30.8C382.6,139.6,380.5,137.6,378,137.6z"/>
			</g>
		</g>
		<g>
			<g>
				<path class="st0" d="M256,83.2h-22.5c-2.5,0-4.5,2-4.5,4.5c0,2.5,2,4.5,4.5,4.5h6.8v33.8c0,2.5,2,4.5,4.5,4.5
					c2.5,0,4.5-2,4.5-4.5V92.2h6.8c2.5,0,4.5-2,4.5-4.5C260.5,85.2,258.5,83.2,256,83.2z"/>
			</g>
		</g>
		<g>
			<g>
				<path class="st0" d="M292.1,83.2c-2.5,0-4.5,2-4.5,4.5v14.6h-11.3V87.7c0-2.5-2-4.5-4.5-4.5c-2.5,0-4.5,2-4.5,4.5v38.3
					c0,2.5,2,4.5,4.5,4.5c2.5,0,4.5-2,4.5-4.5v-14.6h11.3v14.6c0,2.5,2,4.5,4.5,4.5c2.5,0,4.5-2,4.5-4.5V87.7
					C296.6,85.2,294.6,83.2,292.1,83.2z"/>
			</g>
		</g>
		<g>
			<g>
				<path class="st0" d="M321.2,83.2h-1.9c-7.6,0-13.7,6.1-13.7,13.7v29.1c0,2.5,2,4.5,4.5,4.5c2.5,0,4.5-2,4.5-4.5v-14.6h11.3v14.6
					c0,2.5,2,4.5,4.5,4.5c2.5,0,4.5-2,4.5-4.5V96.9C334.9,89.3,328.7,83.2,321.2,83.2z M325.9,102.3h-11.3v-5.4
					c0-2.6,2.1-4.7,4.7-4.7h1.9c2.6,0,4.7,2.1,4.7,4.7L325.9,102.3L325.9,102.3z"/>
			</g>
		</g>
		<g>
			<g>
				<path class="st0" d="M393.1,108l16.9-16c1.8-1.7,1.9-4.6,0.2-6.4c-1.7-1.8-4.6-1.9-6.4-0.2l-12.7,12v-8.7c0-2.5-2-4.5-4.5-4.5
					c-2.5,0-4.5,2-4.5,4.5v38.3c0,2.5,2,4.5,4.5,4.5c2.5,0,4.5-2,4.5-4.5v-8.2l11.2,11.3c0.9,0.9,2,1.3,3.2,1.3
					c1.1,0,2.3-0.4,3.2-1.3c1.8-1.7,1.8-4.6,0-6.4L393.1,108z"/>
			</g>
		</g>
		<g>
			<g>
				<path class="st0" d="M290.5,138.4c-2-1.4-4.8-0.9-6.3,1.1l-9.8,13.9l-9.8-13.9c-1.4-2-4.2-2.5-6.3-1.1c-2,1.4-2.5,4.2-1.1,6.3
					l12.7,18v17.7c0,2.5,2,4.5,4.5,4.5c2.5,0,4.5-2,4.5-4.5v-17.7l12.7-18C293.1,142.7,292.6,139.9,290.5,138.4z"/>
			</g>
		</g>
	</g>
</g>
</svg>
