<?xml version="1.0" encoding="utf-8"?>
<!-- Generator: Adobe Illustrator 21.0.2, SVG Export Plug-In . SVG Version: 6.00 Build 0)  -->
<svg version="1.1" id="Layer_1" xmlns="http://www.w3.org/2000/svg" xmlns:xlink="http://www.w3.org/1999/xlink" x="0px" y="0px"
	 viewBox="0 0 731 222.2" style="enable-background:new 0 0 731 222.2;" xml:space="preserve">
<style type="text/css">
	.st0{display:none;}
	.st1{fill:#800000018000000180000001;}
	.st2{enable-background:new    ;}
</style>
<g id="Layer_1_1_" class="st0">
	
		<image style="display:inline;overflow:visible;enable-background:new    ;" width="400" height="300" xlink:href="D3299A7.jpg"  transform="matrix(1.9933 0 0 1.9933 -276.6667 -209.9623)">
	</image>
</g>
<g id="Layer_2">
</g>
<g>
	<g>
		<path class="st1" d="M163.3,109.6c0,7.5,0,15,0,22.5c0,7-1.9,13.4-5.9,19.1c-3,4.3-6.7,7.9-11.2,10.5c-2.6,1.5-5.1,2.9-7.7,4.4
			c-6.2,3.6-12.4,7.1-18.7,10.7c-4.4,2.5-8.8,5.1-13.3,7.6c-7.7,4.3-15.9,5.5-24.6,3.7c-3.9-0.8-7.5-2.4-10.9-4.4
			c-2.6-1.5-5.3-3.1-7.9-4.6c-6.3-3.6-12.7-7.3-19-10.9c-3.7-2.1-7.3-4.2-11-6.3c-2.9-1.7-5.5-3.7-7.9-6.1
			c-5.6-5.6-8.5-12.4-9.5-20.2c-0.1-0.9-0.2-1.9-0.2-2.8c0-15.4-0.1-30.9,0-46.3c0-8.6,3.1-16.1,8.9-22.5c2.4-2.6,5.1-4.9,8.3-6.6
			c3.5-2,6.9-4,10.4-6c6.3-3.6,12.5-7.2,18.8-10.8c4-2.3,7.9-4.6,11.9-6.7c5.5-2.9,11.5-4,17.7-3.7c6.2,0.3,11.9,2.4,17.2,5.6
			c3.2,2,6.6,3.8,9.9,5.7c6.3,3.6,12.7,7.3,19,10.9c3.1,1.8,6.2,3.5,9.2,5.3c3.8,2.2,6.9,5.2,9.6,8.7c3.9,4.9,5.9,10.6,6.7,16.8
			c0.1,1.2,0.2,2.4,0.2,3.6C163.3,94.5,163.3,102.1,163.3,109.6z M59.8,85c0,0.4-0.1,0.7-0.1,1c0,3.7-0.1,7.5-0.1,11.2
			c0,10.2,0,20.4-0.1,30.6c0,3.2,0.9,6,3.2,8.4c1.5,1.6,3.3,2.8,5.4,3.4c0.5,0.2,0.6,0.4,0.6,0.9c0,3.3,0,6.5,0,9.8
			c0,2.6,1.6,4.8,4,5.3c0.9,0.2,1.8,0.2,2.8,0.2c3,0,5.3-2.4,5.3-5.4c0-3.2,0-6.3,0-9.5c0-0.6,0.1-0.8,0.7-0.8c4.3,0,8.6,0,12.9,0
			c0.6,0,0.7,0.2,0.7,0.7c0,3.2,0,6.3,0,9.5c0,2.7,1.9,5,4.6,5.4c0.7,0.1,1.4,0.1,2.1,0.1c3.3,0,5.6-2.4,5.6-5.7c0-3.2,0-6.4,0-9.7
			c0-0.5,0.1-0.7,0.6-0.9c4.8-1.4,8.3-5.8,8.5-10.8c0.1-3.6,0-7.1,0-10.7c0-0.5-0.2-0.8-0.7-0.9c-5.9-2.1-11.4-5-16.6-8.6
			c-3.7-2.6-7-5.7-10.1-8.9c-2.7-2.7-5.6-5.2-8.9-7.2c-2.7-1.6-5.5-3.1-8.4-4.2C68.2,86.7,64.1,85.7,59.8,85z M118.9,91.5
			c0.3-0.1,0.5-0.1,0.6-0.2c2.1-1,4-2.1,5.7-3.7c1.9-1.8,3.3-3.9,3.6-6.6c0.2-1.8,0.4-3.6,0.7-5.4c0.2-1.2-0.1-2.3-0.7-3.4
			c-0.8-1.4-1.9-2.6-3.2-3.5c-2.2-1.6-4.6-2.8-7.1-3.8c-4.1-1.6-8.2-2.7-12.6-3.1c-4.5-0.4-8.9-0.3-13.4,0.1
			C85.9,62.8,79.4,64,73,66c-0.9,0.3-1.7,0.7-2.6,1c-2.3,0.6-4.3,1.6-6.1,3.2c-0.2,0.2-0.4,0.2-0.6,0.4c0.2,0.2,0.3,0.2,0.3,0.2
			c0.3,0,0.7,0.1,1,0.1c5.6,0.7,11.2,1.8,16.7,3.3c6.8,1.8,13.2,4.4,19.2,8.1c0.3,0.2,0.6,0.2,0.9,0c1.6-0.7,3.3-1.4,4.9-1.9
			c4.1-1.3,8.3-1.8,12.5-0.3c3.1,1.1,5.2,3.8,3,7.4C121.3,89,120.3,90.3,118.9,91.5z M117.5,111.9c0-1.2,0-2.3,0-3.4
			c0-0.2-0.2-0.5-0.4-0.6c-2.8-2.2-5.2-4.8-7.3-7.6c-3.6-4.7-6.4-9.8-8.6-15.2c-0.1-0.3-0.3-0.6-0.5-0.8c-0.8-0.6-1.6-1.1-2.4-1.6
			c-5.5-3.3-11.3-5.7-17.5-7.3C74.8,74,68.9,73,62.8,72.5c-0.4,0-0.6,0.1-0.8,0.4c-0.6,1.3-1.2,2.6-1.8,3.9
			c-0.1,0.2-0.1,0.4-0.2,0.7c1,0.2,2,0.4,2.9,0.7c7.9,2.1,15.3,5.6,22.2,9.9c4.7,2.9,8.6,6.9,12.4,10.9c2,2.1,4.2,4.2,6.7,5.8
			c4.2,2.7,8.5,5,12.9,7.2C117.3,111.9,117.4,111.9,117.5,111.9z M57.4,103.4c0-5.1,0-10.2,0-15.3c0-2-0.9-3.5-2.6-4.6
			c-1.2-0.8-2.5-0.8-3.9-0.8c-3.3,0-5.6,2.4-5.6,5.7c0,4.4,0,8.7,0,13.1c0,5.7,0,11.4,0,17.2c0,2.5,1.6,4.7,4.1,5.3
			c0.8,0.2,1.7,0.2,2.5,0.2c3.2,0,5.6-2.4,5.6-5.6C57.4,113.4,57.4,108.4,57.4,103.4z M130.3,104.7c0-0.1,0.1-0.1,0.1-0.2
			c-2-1.3-3.9-2.6-6-4c3-0.6,5.8-1.6,8.5-2.7c3.2-1.4,6.9-3.7,7.4-4.5c-0.9,0.4-1.8,0.8-2.7,1.2c-2.4,1-4.9,1.8-7.4,2.3
			c-4.4,0.8-8.7,0.7-12.9-0.8c-4.6-1.6-8.1-4.7-10.8-8.6c-0.1-0.2-0.3-0.3-0.4-0.5c0,0.3,0,0.5,0.1,0.8c1.3,3.6,3.4,6.6,6.2,9.1
			c3.7,3.4,8.1,5.5,12.9,6.9C126.8,104,128.6,104.3,130.3,104.7z"/>
		<path class="st1" d="M112.6,71.4c-1.8-0.1-3.5-0.4-5.1-1c-0.3-0.1-0.6-0.2-0.9-0.4c-0.5-0.3-0.9-0.5-0.8-1.2
			c0.1-0.6,0.7-1.3,1.3-1.3c0.7,0,1.4,0,2.1,0.1c1.4,0.3,2.8,0.7,4.2,1.2c0.5,0.1,0.9,0.5,1,1c0.1,0.9-0.3,1.5-1.2,1.6
			C112.9,71.4,112.7,71.4,112.6,71.4z"/>
	</g>
	<g id="XMLID_15_" class="st2">
		<path class="st1" d="M186.2,75.5h35c7.6,0,13.3,1.8,17.1,5.4c3.8,3.6,5.7,8.8,5.7,15.5c0,6.9-2.1,12.3-6.2,16.1
			c-4.1,3.9-10.5,5.8-18.9,5.8h-11.5v25.3h-21.2V75.5z M207.4,104.6h5.2c4.1,0,6.9-0.7,8.6-2.1c1.6-1.4,2.5-3.2,2.5-5.4
			c0-2.1-0.7-4-2.1-5.4s-4.1-2.2-8-2.2h-6V104.6z"/>
		<path class="st1" d="M256.9,75.5h23.4l13.7,23l13.8-23h23.3l-26.5,39.6v28.5h-21.1v-28.5L256.9,75.5z"/>
		<path class="st1" d="M346.9,75.5h31.3c6.2,0,11.1,0.8,14.9,2.5c3.8,1.7,6.9,4.1,9.4,7.2c2.5,3.1,4.3,6.8,5.4,10.9
			c1.1,4.2,1.7,8.6,1.7,13.2c0,7.3-0.8,12.9-2.5,16.9c-1.7,4-4,7.4-6.9,10.1c-2.9,2.7-6.1,4.5-9.5,5.4c-4.6,1.2-8.8,1.9-12.5,1.9
			h-31.3V75.5z M367.9,91v37.2h5.2c4.4,0,7.5-0.5,9.4-1.5c1.9-1,3.3-2.7,4.4-5.1c1.1-2.4,1.6-6.4,1.6-11.8c0-7.2-1.2-12.2-3.5-14.8
			c-2.4-2.7-6.3-4-11.7-4H367.9z"/>
		<path class="st1" d="M429.7,143.7V75.5h35.1c6.5,0,11.5,0.6,14.9,1.7c3.4,1.1,6.2,3.2,8.3,6.2c2.1,3,3.2,6.7,3.2,11
			c0,3.8-0.8,7-2.4,9.8c-1.6,2.7-3.8,5-6.7,6.7c-1.8,1.1-4.3,2-7.4,2.7c2.5,0.8,4.3,1.7,5.5,2.5c0.8,0.6,1.9,1.8,3.4,3.6
			c1.5,1.8,2.5,3.2,2.9,4.2l10.2,19.7h-23.8l-11.3-20.8c-1.4-2.7-2.7-4.4-3.8-5.3c-1.5-1.1-3.2-1.6-5.2-1.6h-1.9v27.7H429.7z
			 M450.8,103.1h8.9c1,0,2.8-0.3,5.6-0.9c1.4-0.3,2.5-1,3.4-2.1c0.9-1.1,1.3-2.5,1.3-4c0-2.2-0.7-3.9-2.1-5.1s-4-1.8-7.9-1.8h-9.3
			V103.1z"/>
		<path class="st1" d="M507.9,109.6c0-11.1,3.1-19.8,9.3-26c6.2-6.2,14.8-9.3,25.9-9.3c11.3,0,20.1,3,26.2,9.1s9.2,14.6,9.2,25.6
			c0,8-1.3,14.5-4,19.6c-2.7,5.1-6.6,9.1-11.6,11.9c-5.1,2.8-11.4,4.3-18.9,4.3c-7.7,0-14-1.2-19.1-3.7c-5-2.4-9.1-6.3-12.2-11.6
			C509.5,124.2,507.9,117.6,507.9,109.6z M529,109.7c0,6.9,1.3,11.8,3.8,14.8s6,4.5,10.4,4.5c4.5,0,8-1.5,10.5-4.4
			c2.5-2.9,3.7-8.2,3.7-15.9c0-6.4-1.3-11.1-3.9-14.1c-2.6-3-6.1-4.4-10.5-4.4c-4.2,0-7.7,1.5-10.2,4.5
			C530.3,97.8,529,102.8,529,109.7z"/>
		<path class="st1" d="M599.5,75.5h21.1v68.1h-21.1V75.5z"/>
		<path class="st1" d="M644.7,75.5H676c6.2,0,11.1,0.8,14.9,2.5c3.8,1.7,6.9,4.1,9.4,7.2c2.5,3.1,4.3,6.8,5.4,10.9
			c1.1,4.2,1.7,8.6,1.7,13.2c0,7.3-0.8,12.9-2.5,16.9c-1.7,4-4,7.4-6.9,10.1c-2.9,2.7-6.1,4.5-9.5,5.4c-4.6,1.2-8.8,1.9-12.5,1.9
			h-31.3V75.5z M665.8,91v37.2h5.2c4.4,0,7.5-0.5,9.4-1.5c1.9-1,3.3-2.7,4.4-5.1c1.1-2.4,1.6-6.4,1.6-11.8c0-7.2-1.2-12.2-3.5-14.8
			c-2.4-2.7-6.3-4-11.7-4H665.8z"/>
	</g>
</g>
</svg>
