<?xml version="1.0" encoding="iso-8859-1"?>
<!-- Generator: Adobe Illustrator 21.0.0, SVG Export Plug-In . SVG Version: 6.00 Build 0)  -->
<svg xmlns="http://www.w3.org/2000/svg" xmlns:xlink="http://www.w3.org/1999/xlink" version="1.1" id="Capa_1" x="0px" y="0px" viewBox="0 0 512.001 512.001" style="enable-background:new 0 0 512.001 512.001;" xml:space="preserve" width="512" height="512">
<g style="fill : #393e46;">
	<path d="M30,422.001c0,16.567,13.431,30,30,30h151c16.569,0,30-13.433,30-30c0-16.569-13.431-30-30-30H60   C43.431,392.001,30,405.432,30,422.001z"/>
	<path d="M271,422.001c0,16.567,13.431,30,30,30h151c16.569,0,30-13.433,30-30c0-16.569-13.431-30-30-30H301   C284.431,392.001,271,405.432,271,422.001z"/>
	<path d="M311.357,6.724c-2.651-3.984-7.046-6.46-11.821-6.665c-4.966-0.469-9.39,1.875-12.363,5.61   C276.596,18.883,271,34.864,271,51.9c0,9.478,1.787,18.735,5.303,27.539l26.937,72.852c4.167-0.721,8.392-1.291,12.761-1.291   c8.291,0,15,6.709,15,15v47.578c0,12.583,2.637,24.756,7.852,36.211c3.428,7.544,0.103,16.436-7.441,19.863   c-7.5,3.501-16.406,0.073-19.863-7.441C304.545,246.831,301,230.469,301,213.579v-30.015c-17.461,6.196-30,22.881-30,42.437   c0,46.117,7.855,92.432,22.738,136h121.263l-6.541-8.174c-11.089-13.857-15.454-32.816-11.982-50.248l19.644-98.203   c3.149-15.732-0.015-31.729-8.906-45.059L311.357,6.724z"/>
	<path d="M95.878,205.376l19.644,98.203c3.472,17.432-0.894,36.391-11.982,50.248l-6.541,8.174h121.263   c14.883-43.568,22.738-89.883,22.738-136c0-19.556-12.539-36.24-30-42.437v30.015c0,16.89-3.545,33.252-10.547,48.633   c-3.442,7.515-12.305,10.913-19.863,7.441c-7.544-3.428-10.869-12.319-7.441-19.863c5.215-11.455,7.852-23.628,7.852-36.211   v-47.578c0-8.291,6.709-15,15-15c4.369,0,8.593,0.569,12.761,1.291l26.937-72.852C239.213,70.636,241,61.378,241,51.9   c0-17.036-5.596-33.018-16.172-46.23c-2.974-3.735-7.397-6.079-12.363-5.61c-4.775,0.205-9.17,2.681-11.821,6.665l-95.859,153.593   C95.893,173.647,92.729,189.643,95.878,205.376z"/>
	<path d="M510.521,503.505c2.49-5.2,1.802-11.367-1.802-15.879l-4.501-5.625H319.507l13.632,22.72   c2.71,4.512,7.588,7.28,12.861,7.28h151C502.772,512.001,508.016,508.69,510.521,503.505z"/>
	<path d="M3.282,487.626c-3.604,4.512-4.292,10.679-1.802,15.879c2.505,5.186,7.749,8.496,13.521,8.496h151   c5.273,0,10.151-2.769,12.861-7.28l13.636-22.72H7.782L3.282,487.626z"/>
</g>















</svg>
